<svg xmlns="http://www.w3.org/2000/svg" viewBox="0 0 241.31 292.84"><defs><style>.cls-1{fill:#ed7063;}</style></defs><title>aleph_logo_ver1</title><g id="Layer_2" data-name="Layer 2"><g id="Layer_1-2" data-name="Layer 1"><path class="cls-1" d="M0,207q0-5,0-10c1-3.45,2-6.88,2.94-10.34,5.37-20.25,14.76-38.83,24-57.44,1.83-3.68,1.44-6.13-.87-9.4-4.22-6-8.42-12.09-11.48-18.68C9.66,90.48,6.81,79.22,9.08,67.25,13,46.63,20.67,27.39,30.33,8.87,31,7.6,31.81,6.43,32.87,4.69c1.41,2,2.41,3.44,3.5,4.86,7.81,10.15,15.16,20.7,23.54,30.36,18.21,21,39.48,38.65,61.45,55.51q19.42,14.91,38.9,29.74c5.88,4.48,6.49,4.55,10.4-1.56a118.71,118.71,0,0,0,7-13.7,7.8,7.8,0,0,0-2-9.58c-3.4-3.17-7.15-5.95-10.61-9.06-9.27-8.34-16.49-18.08-14.35-31.23C152,52,155,44,158.32,36.43,164.44,22.36,173.94,10.56,185,0h2c.71,1.45,1.1,3.21,2.18,4.29Q206,21.27,223.1,38C240.26,54.83,246.18,69.34,237,92.3c-4.86,12.2-13,23.1-19.75,34.53-1,1.77-2.67,3.19-4.38,5.18a82.68,82.68,0,0,0-24.16-23.34c-3.33,9.33-6.29,17.93-9.51,26.43-1.16,3.05-.51,4.79,2.15,6.66,7.36,5.16,14.4,10.79,21.75,16,26.92,18.94,36.41,46.17,36.29,77.54-.08,19.78-6.71,37.82-17.78,54.2-.7,1-1.61,1.91-2.85,3.38-1.16-2.13-2.06-3.66-2.86-5.25-6.58-13.2-14.2-25.63-25.55-35.4s-22.26-20.13-34-29.4c-38.33-30.21-77-60-115.49-90A28.47,28.47,0,0,0,37.42,131c-1,3.51-2.32,6.53-2.78,9.68-1.47,9.92,3.72,17.26,10,24C55.71,176.38,67,187.92,78,199.77,91,213.85,99,230,97.6,249.83c-.75,10.55-5.06,19.18-13.81,25.38-11.18,7.92-24.22,8.48-37.18,9.4-12.75.9-25.48,1.91-38.23,2.82-2,.14-4,0-6.6,0,2.82-4.19,5-7.51,7.27-10.79,2.88-4.22,3.51-8.63,2.4-13.73-3-13.79-5.59-27.67-8.38-41.51C2.11,216.6,1,211.8,0,207Z"/></g></g></svg>