<svg id="Layer_1" data-name="Layer 1" xmlns="http://www.w3.org/2000/svg" viewBox="0 0 264.76 782.89"><defs><style>.cls-1{fill:#ed7063;}</style></defs><title>aleph_logo_ver2</title><path class="cls-1" d="M840.23,1451v782.89H1105V1451Zm209.48,542a44.35,44.35,0,0,1-6,17.48c-3.46,6-7.39,11.64-11,17.21-5-4.74-9.41-8.91-13.83-13-1.5-1.4-2.72-1.54-3.55.8-1.86,5.23-3.95,10.39-5.68,15.66-.26.81.6,2.43,1.41,3.07,4.82,3.74,9.7,7.41,14.71,10.89,17.63,12.25,22.87,30.3,22.92,50.35a52.25,52.25,0,0,1-5.21,22.66c-2.18,4.54-4.79,8.89-7.57,14-1.08-2-1.55-3.07-2.19-4-3.9-6-6.94-12.87-12-17.71-11.45-11.07-23.55-21.53-36-31.51-18.19-14.61-36.89-28.58-55.36-42.83-3.62-2.79-7.18-5.65-10.73-8.45a11.6,11.6,0,0,0-.85,15.34,243.8,243.8,0,0,0,16.67,19c7.06,7.47,14.67,14.43,18.81,24.19,3.33,7.86,4.42,15.81,1.85,24.07s-12.73,14.93-23.22,15.5q-11.7.63-23.39,1.44c-3.19.22-6.35.74-9.54,1-1.12.11-2.25,0-3.8,0a9.85,9.85,0,0,1,.89-1.86c4.49-5.13,6.49-10.54,4.36-17.64s-2.77-14.9-4.56-22.26c-2.35-9.63-2.45-19.09,1.34-28.29,4.43-10.77,9.18-21.42,14-32a4.87,4.87,0,0,0-.47-5.54,86.05,86.05,0,0,1-7.52-12.31c-3-6.54-5.41-13.61-3.8-20.81a213,213,0,0,1,7.51-24.82c2-5.56,4.89-10.78,7.63-16.67,2.18,3.18,3.81,5.68,5.56,8.1,8.46,11.65,17.83,22.54,29,31.69,14.8,12.16,29.86,24,44.9,35.86,7.21,5.68,6.58,6.71,12.06-2.82,4.16-7.23,3.25-9.95-3.31-14.88a43.77,43.77,0,0,1-7.42-7c-3.83-4.64-5.87-10.16-4.54-16.14a69.79,69.79,0,0,1,19.43-34.83,17.37,17.37,0,0,0,1.87-2.73h1.93c3,3.9,5.77,8.11,9.2,11.64,5.13,5.3,11,9.92,16.11,15.2C1046.6,1976.27,1050.75,1983.58,1049.7,1993Z" transform="translate(-840.23 -1451)"/></svg>