<svg xmlns="http://www.w3.org/2000/svg" viewBox="0 0 336.05 336.05"><defs><style>.cls-1{fill:#ebe7ec;}.cls-2{fill:#ed7063;}</style></defs><title>icon_html_ver1</title><g id="Layer_2" data-name="Layer 2"><g id="Layer_1-2" data-name="Layer 1"><circle class="cls-1" cx="168.03" cy="168.03" r="168.03"/><path class="cls-2" d="M127.52,230.6q-10.51-3.13-15.82-10.2t-5.32-18.76V187.82q0-16.45-14.45-16.45v-6.5q14.45,0,14.45-16.32V134.22q.06-11.44,5.32-18.51t15.82-10.26l1.63,4.94q-15.26,4.88-15.26,24.45v13.32q0,15.39-11.51,20,11.51,4.82,11.51,19.89v14.26q.25,18.26,15.45,23.33Z"/><path class="cls-2" d="M206.72,225.6q15.2-5.07,15.45-23.33v-14q0-15.82,12.07-20.08-12.07-4.25-12.07-20V134.91q0-19.76-15.26-24.52l1.63-4.94q10.69,3.19,15.92,10.35t5.22,18.8v13.95q0,16.32,14.45,16.32v6.5q-14.45,0-14.45,16.45v13.82q0,11.69-5.32,18.76t-15.82,10.2Z"/></g></g></svg>