<svg xmlns="http://www.w3.org/2000/svg" viewBox="0 0 336.05 336.05"><defs><style>.cls-1{fill:#ebe7ec;}.cls-2{fill:#ed7063;}</style></defs><title>icon_javascript_ver1</title><g id="Layer_2" data-name="Layer 2"><g id="Layer_1-2" data-name="Layer 1"><circle class="cls-1" cx="168.03" cy="168.03" r="168.03"/><path class="cls-2" d="M224.86,168c0,17.61-.06,35.21.06,52.82,0,3-.78,4.08-3.92,4.08q-53-.14-106,0c-3.17,0-3.9-1.12-3.9-4.08q.12-52.82,0-105.63c0-3,.78-4.08,3.92-4.08q53,.14,106,0c3.17,0,3.92,1.12,3.9,4.08C224.81,132.81,224.86,150.42,224.86,168ZM180.2,206.88c5.49,10.77,18.34,15,29.49,10,7-3.14,10.27-9.82,8.83-17.38-1.1-5.79-4.73-9.34-9.62-11.89-4-2.08-8.19-3.82-12.17-5.93-2.47-1.31-3.71-3.49-2.65-6.39a5.21,5.21,0,0,1,6.79-3.12c2.24.83,4.17,2.53,6.59,4.07l7.88-5.06c-4.16-7.52-10.51-9.44-18.12-8.93-6.69.45-12.18,4.45-14,10.37a15.73,15.73,0,0,0,5.43,17.25,60.17,60.17,0,0,0,7.74,4.38c2.54,1.32,5.22,2.38,7.71,3.79,2.23,1.26,3.54,3.56,2.59,5.88a8.65,8.65,0,0,1-4.32,4.32c-4,1.61-7.56,0-10.41-3.07-1.18-1.27-2.17-2.72-3.26-4.1Zm-6.38-44.44H162.23c0,1.39,0,2.58,0,3.77,0,10.51,0,21,0,31.53a31.72,31.72,0,0,1-.47,4.93c-.46,2.81-2.21,4.07-5,4.27-4.34.3-6.92-2.31-9.37-5.56l-9,5.47A21,21,0,0,0,151.18,218c10.55,3,20-1.73,22.22-11.28a22.21,22.21,0,0,0,.4-4.94C173.83,188.79,173.82,175.75,173.82,162.44Z"/></g></g></svg>