<svg xmlns="http://www.w3.org/2000/svg" viewBox="0 0 336.05 336.05"><defs><style>.cls-1{fill:#ebe7ec;}.cls-2,.cls-3,.cls-5{fill:none;}.cls-2,.cls-3{stroke:#ed7063;stroke-linecap:round;stroke-linejoin:round;}.cls-2,.cls-5{stroke-width:5px;}.cls-3{stroke-width:4px;}.cls-4{fill:#ed7063;}.cls-5{stroke:#ebe7ec;stroke-miterlimit:10;}</style></defs><title>icon_objectprogramming_ver1</title><g id="Layer_2" data-name="Layer 2"><g id="Layer_1-2" data-name="Layer 1"><circle class="cls-1" cx="168.03" cy="168.03" r="168.03"/><polygon class="cls-2" points="171.2 236.15 97.7 204.42 97.7 134.1 171.2 165.82 238.35 134.1 238.35 202.84 171.2 236.15"/><line class="cls-2" x1="171.2" y1="236.15" x2="171.2" y2="164.27"/><line class="cls-2" x1="171.2" y1="99.9" x2="97.7" y2="134.1"/><line class="cls-2" x1="171.2" y1="99.9" x2="238.35" y2="134.1"/><polygon class="cls-3" points="169.69 204.18 131.55 187.72 131.55 151.22 169.69 167.69 204.53 151.22 204.53 186.89 169.69 204.18"/><line class="cls-3" x1="169.68" y1="204.18" x2="169.68" y2="166.88"/><line class="cls-3" x1="131.16" y1="150.9" x2="170.42" y2="133.58"/><line class="cls-3" x1="169.68" y1="133.48" x2="204.9" y2="150.9"/><polygon class="cls-4" points="137.78 149.53 169.69 163.46 201.54 149.25 169.69 135.74 140.53 148.29 137.78 149.53"/><polygon class="cls-4" points="131.55 153.9 133 188.34 171.2 202.17 205.13 185.53 203.82 153.9 132.86 151.22 131.55 153.9"/><line class="cls-5" x1="171.2" y1="206.82" x2="171.2" y2="164.27"/><line class="cls-5" x1="131.55" y1="148.71" x2="171.2" y2="165.82"/><line class="cls-5" x1="206.15" y1="149.31" x2="171.2" y2="165.82"/></g></g></svg>