<svg xmlns="http://www.w3.org/2000/svg" viewBox="0 0 336.05 336.05"><defs><style>.cls-1{fill:#ebe7ec;}.cls-2{fill:#ed7063;}</style></defs><title>icon_git_ver1</title><g id="Layer_2" data-name="Layer 2"><g id="Layer_1-2" data-name="Layer 1"><circle class="cls-1" cx="168.03" cy="168.03" r="168.03"/><path class="cls-2" d="M90.47,170.18v-4.53c1-3.06,3.2-5.26,5.42-7.47q21.39-21.28,42.73-42.61c.37-.37.77-.72,1.15-1.08a3.64,3.64,0,0,1,.48.33c5.5,5.49,11,11,16.45,16.5a2.17,2.17,0,0,1,.34,1.79A11.72,11.72,0,0,0,162.77,147a1.92,1.92,0,0,1,1.14,2q0,19.82,0,39.64a2.16,2.16,0,0,1-1.29,2.25,11.3,11.3,0,0,0-6.11,10.47,11.81,11.81,0,0,0,22.81,4.11,11.66,11.66,0,0,0-4.58-14.17,2.25,2.25,0,0,1-1.2-2.19c0-13.05,0-26.1,0-39.15,0-.45.07-.89.13-1.55.58.55,1,.9,1.34,1.28,4.39,4.38,8.74,8.81,13.18,13.13a2.94,2.94,0,0,1,1,3.33,11.59,11.59,0,0,0,5.69,13.07,11.79,11.79,0,1,0,3.1-21.78,2.2,2.2,0,0,1-2.39-.73q-7.45-7.54-15-15a2.48,2.48,0,0,1-.78-2.65,11.66,11.66,0,0,0-14-13.92,2.24,2.24,0,0,1-2.37-.75c-5.19-5.25-10.43-10.46-15.65-15.69-.36-.37-.7-.76-1.11-1.21L160.16,94c4.75-4.75,10.63-4.77,15.41,0q33.25,33.22,66.45,66.48a13.38,13.38,0,0,1,2.48,3.35c2.09,4.14,1.12,8.5-2.58,12.2q-32,32-64.05,64.08c-2.21,2.22-4.41,4.4-7.47,5.42h-4.53c-3-1-5.17-3.12-7.35-5.3q-31.34-31.41-62.75-62.75C93.59,175.35,91.47,173.19,90.47,170.18Z"/></g></g></svg>