<svg xmlns="http://www.w3.org/2000/svg" viewBox="0 0 336.05 336.05"><defs><style>.cls-1{fill:#ebe7ec;}.cls-2{fill:#ed7063;}</style></defs><title>icon_database_ver1</title><g id="Layer_2" data-name="Layer 2"><g id="Layer_1-2" data-name="Layer 1"><circle class="cls-1" cx="168.03" cy="168.03" r="168.03"/><path class="cls-2" d="M160.86,100.3h14.28a13.86,13.86,0,0,0,1.54.25,120.13,120.13,0,0,1,22.56,3.23c6.13,1.5,12.1,3.46,17.49,6.82,5,3.11,8,7.06,7.93,13.52-.24,29.87-.11,59.75-.09,89.63a10.94,10.94,0,0,1-3,7.68,27.48,27.48,0,0,1-9.19,6.31c-11,5-22.68,6.83-34.58,7.67a143.24,143.24,0,0,1-25.07-.46,106.07,106.07,0,0,1-23.32-4.84c-4.89-1.67-9.59-3.75-13.56-7.19a11.92,11.92,0,0,1-4.48-9.83c.16-5.81,0-11.63,0-17.45q0-21.55,0-43.09c0-9.83.13-19.65,0-29.48a12.08,12.08,0,0,1,4.09-9.59,32.87,32.87,0,0,1,10-6c9.53-3.93,19.55-5.68,29.75-6.59C157.11,100.67,159,100.48,160.86,100.3Zm57.95,61.46a47.44,47.44,0,0,1-12,6,112.09,112.09,0,0,1-30.41,5.49,137.17,137.17,0,0,1-36.64-2.61c-7.82-1.68-15.41-4-22.11-8.56-.08-.06-.23,0-.41,0,0,6.91.06,13.78,0,20.65a6.51,6.51,0,0,0,2.85,5.78,38.4,38.4,0,0,0,7.18,4.1c10.32,4.19,21.24,5.47,32.25,6.1a153.29,153.29,0,0,0,28.61-1,87.49,87.49,0,0,0,19.35-4.46,28.27,28.27,0,0,0,8.56-4.61,6.93,6.93,0,0,0,2.87-5.92c-.12-2.24,0-4.49,0-6.74C218.81,171.29,218.81,166.67,218.81,161.77ZM117.2,193c0,.58,0,1,0,1.36,0,6.39.07,12.78,0,19.17a6.67,6.67,0,0,0,2.83,6.05,40,40,0,0,0,7.42,4.21c10.63,4.28,21.86,5.55,33.19,6.08a154.6,154.6,0,0,0,24.41-.72,98.51,98.51,0,0,0,20.88-4.29c3.76-1.28,7.42-2.79,10.44-5.49a6.94,6.94,0,0,0,2.52-5.56c-.08-6.48,0-13,0-19.43,0-.41,0-.83-.06-1-3.34,1.61-6.55,3.44-10,4.76-10.83,4.18-22.19,5.77-33.7,6.31a139.18,139.18,0,0,1-27.15-1.22C137.17,201.59,126.67,199.21,117.2,193Zm0-62.21c0,.5-.06.84-.06,1.19,0,6.74,0,13.48.08,20.22a6.92,6.92,0,0,0,1.21,3.5,8.48,8.48,0,0,0,2.87,2.67,58.08,58.08,0,0,0,8.53,4.08c11.26,3.91,23,5,34.82,5.29a146.75,146.75,0,0,0,25.81-1.57c6.75-1,13.44-2.39,19.66-5.31a37.11,37.11,0,0,0,6.52-4.17,5.75,5.75,0,0,0,2.13-4.9c-.06-6.65,0-13.31,0-20a6.32,6.32,0,0,0-.06-.72c-3.2,1.55-6.31,3.3-9.59,4.6-11.7,4.61-24,6.12-36.45,6.58a134.7,134.7,0,0,1-25.91-1.51C136.44,139.16,126.35,136.76,117.25,130.78Zm50.88-24.87c-3.61.15-7.22.24-10.83.45a107.68,107.68,0,0,0-25.58,4.28c-4.13,1.27-8.18,2.79-11.55,5.62-4,3.39-3.93,7.08.25,10.3a1.46,1.46,0,0,0,.21.16,79.24,79.24,0,0,0,8.42,4.25c10.83,4,22.19,5.14,33.61,5.54A147.35,147.35,0,0,0,190.3,135a83.27,83.27,0,0,0,18.17-4.56,22.69,22.69,0,0,0,8.48-5.17c2.45-2.59,2.48-5.39,0-7.94a17.7,17.7,0,0,0-3.4-2.7,45.72,45.72,0,0,0-13.11-5.07C189.85,106.89,179,106,168.13,105.91Z"/></g></g></svg>