<svg xmlns="http://www.w3.org/2000/svg" viewBox="0 0 336.05 336.05"><defs><style>.cls-1{fill:#ed7063;}.cls-2{fill:#ebe7ec;stroke:#ebe7ec;stroke-miterlimit:10;}</style></defs><title>icon_startsecond_ver1</title><g id="Layer_2" data-name="Layer 2"><g id="Layer_1-2" data-name="Layer 1"><circle class="cls-1" cx="168.03" cy="168.03" r="168.03"/><path class="cls-2" d="M104.83,186.17c.75-2.2,1.42-4.43,2.26-6.6,3.69-9.56,9.75-17.17,18.7-22.3a36.37,36.37,0,0,1,20.6-5.15,1.11,1.11,0,0,1,.37,0c2,.89,3.11-.17,4.49-1.58,11.46-11.76,24.18-21.89,39-29.22a60.36,60.36,0,0,1,20-6.33,3,3,0,0,0,.58-.19h5.68a7.93,7.93,0,0,0,.91.26c6,1,10.43,3.93,12.63,9.74a45.85,45.85,0,0,1,1.27,4.82v5.68c-.37,1.93-.68,3.87-1.13,5.78a76.7,76.7,0,0,1-8.63,20.59,154.27,154.27,0,0,1-24.95,31.86c-1,1-2.59,1.73-3.1,2.92s.21,2.69.25,4.06c.24,8.8-2.62,16.63-7.76,23.66-6.64,9.08-15.86,14.18-26.55,17a2,2,0,0,1-2.14-3.3c2.16-3.49,4.43-6.92,6.39-10.52a27,27,0,0,0,3.34-11.37c.09-1.5,0-3,0-4.85-1,.58-1.72,1-2.41,1.38a2.23,2.23,0,0,1-3-.39l-2.77-2.88c-1.53,1.52-3,2.92-4.4,4.4-2.48,2.64-3.15,2.6-5.72,0-5.72-5.8-11.52-11.51-17.29-17.26-1.64-1.63-1.64-2.5,0-4.13l5.14-5.16c-.93-.92-1.84-1.79-2.72-2.69-1.12-1.13-1.2-1.79-.42-3.18.39-.71.81-1.4,1.32-2.28a23.25,23.25,0,0,0-7.26.19c-6,1.15-11.16,4-16.17,7.28-.9.58-1.76,1.21-2.64,1.81-1.71,1.16-2.5,1-3.74-.53Zm58.62,22.23c6.33-3.2,12.56-6.33,18.77-9.51a47.17,47.17,0,0,0,13.33-10c2.42-2.63,4.9-5.22,7.22-7.94,8.23-9.64,15.46-19.94,20.4-31.69,2.61-6.21,4.52-12.57,3.9-19.47a11.46,11.46,0,0,0-7.43-10c-3.89-1.41-7.85-1.1-11.8-.34-8.18,1.57-15.56,5.12-22.68,9.27A154.41,154.41,0,0,0,160,147.46c-5.63,5-10.46,10.65-13.66,17.59-1.41,3.05-3.14,6-4.7,8.94-1.44,2.76-2.84,5.54-4.2,8.21Zm.41,27.15c9.4-3.45,16.82-9.23,21.6-18.08a32.36,32.36,0,0,0,4.15-17.7,1.92,1.92,0,0,0-.42.06c-6,3.15-12,6.31-18,9.43-.65.34-.6.75-.51,1.3a27.78,27.78,0,0,1-2.26,15.74C167.08,229.41,165.44,232.4,163.87,235.56Zm-17.32-79.5a35.66,35.66,0,0,0-23.43,7.85,38.79,38.79,0,0,0-12.58,17.85c3.33-1.62,6.58-3.41,10-4.8A26.17,26.17,0,0,1,135.58,175a1.15,1.15,0,0,0,1.42-.76c3-5.67,6-11.33,9-17C146.16,157,146.29,156.62,146.55,156.05Zm-11.21,38.12,16.12,16.3,4-4.06-16.12-16.27Z"/><path class="cls-2" d="M135.48,207.4c1.94,0,2.91,1.53,2.18,2.84a5.44,5.44,0,0,1-.94,1.13q-9.21,9.2-18.43,18.38a6.52,6.52,0,0,1-1,.88,1.94,1.94,0,0,1-2.65-2.74,6.25,6.25,0,0,1,.73-.83q9.35-9.32,18.71-18.63A9.2,9.2,0,0,1,135.48,207.4Z"/><path class="cls-2" d="M145,216a10.05,10.05,0,0,1-1.09,1.76q-6.21,6.26-12.48,12.46c-1.11,1.1-2.28,1.14-3.14.21s-.7-2,.35-3q6.18-6.2,12.39-12.37c.68-.68,1.5-1.2,2.41-.65A8.36,8.36,0,0,1,145,216Z"/><path class="cls-2" d="M116.11,217.75c-.63-.48-1.36-.79-1.61-1.32a3.18,3.18,0,0,1,0-1.95c.09-.39.54-.7.86-1l11.79-11.75a6,6,0,0,1,.93-.81,1.8,1.8,0,0,1,2.46.29,1.84,1.84,0,0,1,.24,2.37,3.88,3.88,0,0,1-.61.76q-6.11,6.1-12.24,12.17A13.16,13.16,0,0,1,116.11,217.75Z"/><path class="cls-2" d="M185.73,148.63a11.89,11.89,0,1,1,12,11.85A11.86,11.86,0,0,1,185.73,148.63Zm11.84-7.89a7.88,7.88,0,0,0,0,15.76,7.88,7.88,0,1,0,0-15.76Z"/></g></g></svg>