<svg xmlns="http://www.w3.org/2000/svg" viewBox="0 0 336.05 336.05"><defs><style>.cls-1{fill:#ebe7ec;}.cls-2,.cls-3{fill:#ed7063;}.cls-2{stroke:#ed7063;stroke-miterlimit:10;stroke-width:0.75px;}</style></defs><title>icon_basicprogramming_ver1</title><g id="Layer_2" data-name="Layer 2"><g id="Layer_1-2" data-name="Layer 1"><circle class="cls-1" cx="168.03" cy="168.03" r="168.03"/><path class="cls-2" d="M238.83,207.36H97.22a3.81,3.81,0,0,1-3.8-3.8V132.5a3.81,3.81,0,0,1,3.8-3.8H238.83a3.81,3.81,0,0,1,3.8,3.8v71.06A3.81,3.81,0,0,1,238.83,207.36ZM97.22,131.74a.76.76,0,0,0-.76.76v71.06a.76.76,0,0,0,.76.76H238.83a.76.76,0,0,0,.76-.76V132.5a.76.76,0,0,0-.76-.76Z"/><rect class="cls-3" x="110.85" y="142.33" width="8" height="8"/><rect class="cls-3" x="128.55" y="142.33" width="8" height="8"/><rect class="cls-3" x="146.24" y="142.33" width="8" height="8"/><rect class="cls-3" x="163.93" y="142.33" width="8" height="8"/><rect class="cls-3" x="181.63" y="142.33" width="8" height="8"/><rect class="cls-3" x="199.32" y="142.33" width="8" height="8"/><rect class="cls-3" x="217.01" y="142.33" width="8" height="8"/><rect class="cls-3" x="110.85" y="162.09" width="8" height="8"/><rect class="cls-3" x="128.55" y="162.09" width="8" height="8"/><rect class="cls-3" x="146.24" y="162.09" width="8" height="8"/><rect class="cls-3" x="163.93" y="162.09" width="8" height="8"/><rect class="cls-3" x="181.63" y="162.09" width="8" height="8"/><rect class="cls-3" x="199.32" y="162.09" width="8" height="8"/><rect class="cls-3" x="217.01" y="162.09" width="8" height="8"/><rect class="cls-3" x="110.85" y="181.84" width="8" height="8"/><rect class="cls-3" x="128.55" y="181.84" width="8" height="8"/><rect class="cls-3" x="146.24" y="181.84" width="8" height="8"/><rect class="cls-3" x="151.69" y="181.84" width="32.48" height="8"/><rect class="cls-3" x="181.63" y="181.84" width="8" height="8"/><rect class="cls-3" x="199.32" y="181.84" width="8" height="8"/><rect class="cls-3" x="217.01" y="181.84" width="8" height="8"/></g></g></svg>