<svg xmlns="http://www.w3.org/2000/svg" viewBox="0 0 336.05 336.05"><defs><style>.cls-1{fill:#ebe7ec;}.cls-2{fill:#ed7063;}</style></defs><title>icon_spring_ver1</title><g id="Layer_2" data-name="Layer 2"><g id="Layer_1-2" data-name="Layer 1"><circle class="cls-1" cx="168.03" cy="168.03" r="168.03"/><path class="cls-2" d="M168,90a78,78,0,1,0,78,78A78,78,0,0,0,168,90ZM125.17,209.58a6.12,6.12,0,0,1-5.08.95c-3-.62-4.32-2.41-5.31-5-.54-1.42-1.32-2.64.06-3.95.07-.06,0-.25,0-.37.63-2.38,3.34-4.23,5.75-4.48a7.6,7.6,0,0,1,6.56,2.66c1,1,1.27,2.73,1.82,4C128.27,205.95,127.3,208.13,125.17,209.58Zm96.07-42.38a15.42,15.42,0,0,1-.53,2.63c-.07.36-.27.77-.17,1.07.51,1.42-.32,2.56-.63,3.82-.19.76.07,1.69-.26,2.36-.59,1.2-.21,2.58-1,3.76-.5.74-.34,1.9-.67,2.79a26,26,0,0,1-1.7,3.67,52.53,52.53,0,0,1-3.15,5.16,48.67,48.67,0,0,1-4.07,4.86,28.73,28.73,0,0,1-6.6,4.86c-1.32.77-3,.88-4.05,2.08-.25.28-.92.28-1.39.25-1.6-.12-2.69,1.83-4.44,1.09-.14-.06-.41.23-.63.3-1,.34-2,1-3.19.47a2.65,2.65,0,0,0-1.56.21c-3.49,1.08-7.07.69-10.63.74a49.53,49.53,0,0,1-9.84-.93c-1.34-.25-2.81.23-4.2.15-1.72-.1-3.41-.48-5.13-.65-1.12-.11-2.26-.07-3.4-.07-3.22,0-6.45.16-9.66-.07a16,16,0,0,0-4.5.6c-1.1.23-2.25.22-3.33.51a18.75,18.75,0,0,0-2.67,1.15l-.24-.25A29.56,29.56,0,0,1,136,205.9a19.4,19.4,0,0,1,2.9-1.43c.75-.3,1.56-.43,2.34-.66s1.79-.86,2.62-.75c1.46.19,2.43-1.61,3.93-.77,1.06-.87,2.4-.68,3.61-1,1.5-.36,3-.67,4.52-1,.5-.12,1-.35,1.47-.47s1.21-.21,1.81-.3c.12,0,.3.06.37,0,.81-.72,1.81-.66,2.79-.83a17.07,17.07,0,0,0,3.11-1.15c1.74-.68,3.49-1.34,5.21-2.06a56.09,56.09,0,0,0,5.13-2.28c1.5-.81,2.85-1.89,4.28-2.82s2.77-1.6,4-2.58c1.76-1.39,3.37-3,5.06-4.45,1.31-1.15,2.69-2.22,4-3.42a29.35,29.35,0,0,0,2.22-2.56c1.4-1.67,2.84-3.3,4.16-5,.88-1.15,1.59-2.43,2.35-3.67.51-.83,1-1.68,1.52-2.59a1,1,0,0,0-1.72,0c-1.46,1.64-2.8,3.39-4.34,4.94a72.6,72.6,0,0,1-6.33,5.82c-2.65,2.09-5.46,4-8.3,5.83-1.95,1.25-4.07,2.23-6.12,3.33-1.22.66-2.41,1.38-3.66,2s-2.65,1-4,1.54c-.51.2-1,.48-1.5.69a2.27,2.27,0,0,1-.73.15c-.24,0-.62-.16-.71,0-1,1.13-2.54.75-3.75,1.37-.8.41-2,.28-3,.58s-2.14.55-3.21.82c-.16,0-.35.22-.45.17-1.32-.62-2.34.71-3.45.61-1.76-.17-3.3,1-4.82.8-1.81-.22-3.36.68-5,.53s-3,.71-4.46.67c-1.81-.05-3.39.61-5.08.94-1.5.3-2.5-.57-3.67-1.3a15.46,15.46,0,0,1-5.76-7c-1-2.12-2-4.44-1.58-7,.1-.7-.5-1.5-.42-2.22.26-2.35,1-4.7.92-7,0-1.24,1-2,.72-3.23-.13-.59.59-1.39,1-2.08a28.63,28.63,0,0,1,2.54-4.49,66,66,0,0,1,5.48-5.84,19,19,0,0,1,5.78-3.84c1.32-.57,2.49-1.51,3.81-2.08a16.3,16.3,0,0,1,2.83-.6,4.5,4.5,0,0,0,.85-.43c.4-.19.89-.62,1.19-.51,1.31.44,2.36-.38,3.54-.52s2.1,0,3.15,0c3.83-.07,7.66-.21,11.49-.22,3.33,0,6.66.19,10,.19a16.21,16.21,0,0,0,3.51-.5c.85-.19,1.66-.85,2.25-.14a18.07,18.07,0,0,0,3.05-.61c1.33-.52,2.92-.36,4-1.47a.67.67,0,0,1,.42-.23c2.2.16,3.92-1.25,5.82-1.94,2.17-.79,4.06-2.34,6.08-3.55a24.59,24.59,0,0,0,2.78-1.63,64.74,64.74,0,0,0,6.05-5.16c2.29-2.34,4.31-4.93,6.58-7.56.1.32.19.73.35,1.11.29.71.95,1.46.84,2.09a6.34,6.34,0,0,0,.57,2.79c.2.81.53,1.6.69,2.42.32,1.67.51,3.37.83,5,.17.87.61,1.7.72,2.57.25,2,.3,4,.56,6.06a22.75,22.75,0,0,0,.82,3,1.37,1.37,0,0,1,.13.59c-.61,2.52.6,4.91.53,7.4C221.21,161.66,221.3,164.44,221.23,167.2Z"/></g></g></svg>