<svg xmlns="http://www.w3.org/2000/svg" viewBox="0 0 336.05 336.05"><defs><style>.cls-1{fill:#ebe7ec;}.cls-2{fill:#ed7063;stroke:#ed7063;stroke-miterlimit:10;}</style></defs><title>icon_css_ver1</title><g id="Layer_2" data-name="Layer 2"><g id="Layer_1-2" data-name="Layer 1"><circle class="cls-1" cx="168.03" cy="168.03" r="168.03"/><path class="cls-2" d="M110.82,178.9H99.73L97,193.38h-3.5l2.72-14.48h-9v-3.28h9.6L99.77,160H89.91v-3.39H100.4L103.19,142h3.5l-2.79,14.69H115L117.81,142h3.53l-2.79,14.69h8.09V160h-8.72L115,175.62h9v3.28h-9.64l-2.72,14.48H108.1Zm-10.49-3.28h11.12L114.38,160H103.26Z"/><path class="cls-2" d="M151.26,190.52a11.16,11.16,0,0,0,7.4-2.49,8.76,8.76,0,0,0,3.23-6.44H166a12,12,0,0,1-2.19,6.37,13.71,13.71,0,0,1-5.35,4.5,16.13,16.13,0,0,1-7.15,1.62q-7.52,0-11.92-5.22T135,174.81v-1.27a23.87,23.87,0,0,1,2-10,15.23,15.23,0,0,1,5.67-6.71,15.64,15.64,0,0,1,8.63-2.37,14.73,14.73,0,0,1,10.36,3.74,13.65,13.65,0,0,1,4.36,9.85h-4.06a10.22,10.22,0,0,0-10.66-10,10.54,10.54,0,0,0-8.88,4.13q-3.16,4.13-3.16,11.58V175q0,7.31,3.16,11.4A10.6,10.6,0,0,0,151.26,190.52Z"/><path class="cls-2" d="M202.62,183.67a6,6,0,0,0-2.52-5,19.47,19.47,0,0,0-7.61-3,34.28,34.28,0,0,1-7.89-2.47,10.51,10.51,0,0,1-4.17-3.41,8.5,8.5,0,0,1-1.36-4.87,9.09,9.09,0,0,1,3.78-7.47,15.26,15.26,0,0,1,9.67-2.95q6.39,0,10.26,3.16a10.14,10.14,0,0,1,3.87,8.24h-4.24a6.84,6.84,0,0,0-2.81-5.58,12.67,12.67,0,0,0-13.77-.37,5.72,5.72,0,0,0-2.52,4.82,5.21,5.21,0,0,0,2.1,4.43q2.1,1.57,7.66,2.88a36,36,0,0,1,8.33,2.79,10.8,10.8,0,0,1,4.11,3.57A9.81,9.81,0,0,1,203,191.19q-3.9,2.9-10.19,2.89-6.67,0-10.82-3.23a9.94,9.94,0,0,1-4.15-8.17H182a7.34,7.34,0,0,0,3.12,5.77,12.77,12.77,0,0,0,7.61,2.07,12,12,0,0,0,7.13-1.94A5.83,5.83,0,0,0,202.62,183.67Z"/><path class="cls-2" d="M244.59,183.67a6,6,0,0,0-2.52-5,19.47,19.47,0,0,0-7.61-3,34.28,34.28,0,0,1-7.89-2.47,10.51,10.51,0,0,1-4.17-3.41,8.5,8.5,0,0,1-1.36-4.87,9.09,9.09,0,0,1,3.78-7.47,15.26,15.26,0,0,1,9.67-2.95q6.39,0,10.26,3.16a10.14,10.14,0,0,1,3.87,8.24h-4.24a6.84,6.84,0,0,0-2.81-5.58,12.67,12.67,0,0,0-13.77-.37,5.72,5.72,0,0,0-2.52,4.82,5.21,5.21,0,0,0,2.1,4.43q2.1,1.57,7.66,2.88a36,36,0,0,1,8.33,2.79,10.8,10.8,0,0,1,4.11,3.57,9.81,9.81,0,0,1-2.56,12.78q-3.9,2.9-10.19,2.89-6.67,0-10.82-3.23a9.94,9.94,0,0,1-4.15-8.17H224a7.34,7.34,0,0,0,3.12,5.77,12.77,12.77,0,0,0,7.61,2.07,12,12,0,0,0,7.13-1.94A5.83,5.83,0,0,0,244.59,183.67Z"/></g></g></svg>