<svg xmlns="http://www.w3.org/2000/svg" viewBox="0 0 336.05 336.05"><defs><style>.cls-1{fill:#ebe7ec;}.cls-2{fill:#ed7063;stroke:#ed7063;stroke-miterlimit:10;}</style></defs><title>icon_start_ver1</title><g id="Layer_2" data-name="Layer 2"><g id="Layer_1-2" data-name="Layer 1"><circle class="cls-1" cx="168.03" cy="168.03" r="168.03"/><path class="cls-2" d="M105.67,184.06c.74-2.17,1.4-4.37,2.23-6.51,3.64-9.43,9.62-16.95,18.45-22a35.88,35.88,0,0,1,20.32-5.08,1.09,1.09,0,0,1,.36,0c2,.88,3.07-.17,4.43-1.56,11.31-11.6,23.85-21.6,38.44-28.83a59.56,59.56,0,0,1,19.69-6.25,3,3,0,0,0,.57-.19h5.6a7.83,7.83,0,0,0,.9.25c5.9.94,10.29,3.88,12.46,9.61a45.24,45.24,0,0,1,1.25,4.75v5.6c-.37,1.9-.67,3.82-1.11,5.7a75.68,75.68,0,0,1-8.51,20.32,152.21,152.21,0,0,1-24.61,31.43c-1,1-2.56,1.7-3.06,2.88s.21,2.65.24,4c.23,8.69-2.58,16.41-7.65,23.34-6.55,9-15.65,14-26.2,16.73a2,2,0,0,1-2.12-3.26c2.13-3.44,4.37-6.83,6.3-10.38A26.67,26.67,0,0,0,167,213.44c.09-1.48,0-3,0-4.78-1,.57-1.69,1-2.38,1.36a2.2,2.2,0,0,1-3-.38l-2.73-2.84c-1.51,1.5-3,2.88-4.34,4.34-2.45,2.6-3.11,2.57-5.65,0-5.64-5.72-11.37-11.36-17.06-17-1.61-1.61-1.61-2.47,0-4.07l5.07-5.09c-.92-.91-1.81-1.77-2.69-2.66-1.1-1.11-1.18-1.77-.42-3.14.39-.7.8-1.38,1.31-2.25a22.94,22.94,0,0,0-7.16.18c-5.89,1.13-11,4-16,7.18-.88.58-1.74,1.2-2.61,1.79-1.68,1.15-2.47,1-3.69-.52ZM163.51,206c6.24-3.16,12.39-6.24,18.52-9.39a46.54,46.54,0,0,0,13.16-9.9c2.39-2.6,4.83-5.15,7.12-7.84,8.12-9.51,15.25-19.68,20.13-31.27,2.58-6.12,4.46-12.4,3.85-19.21a11.31,11.31,0,0,0-7.33-9.86c-3.84-1.39-7.74-1.09-11.64-.34-8.07,1.55-15.35,5.05-22.38,9.14a152.35,152.35,0,0,0-24.82,18.54c-5.56,5-10.32,10.51-13.48,17.36-1.39,3-3.1,5.87-4.64,8.82-1.42,2.72-2.8,5.47-4.14,8.1Zm.41,26.79c9.27-3.41,16.59-9.1,21.31-17.84a31.93,31.93,0,0,0,4.1-17.46,1.89,1.89,0,0,0-.42.06c-5.91,3.1-11.82,6.22-17.75,9.3-.64.33-.59.74-.5,1.28a27.41,27.41,0,0,1-2.23,15.53C167.09,226.73,165.47,229.67,163.92,232.79Zm-17.09-78.44a35.18,35.18,0,0,0-23.12,7.75,38.28,38.28,0,0,0-12.41,17.61c3.29-1.6,6.49-3.36,9.85-4.74a25.82,25.82,0,0,1,14.86-1.9,1.14,1.14,0,0,0,1.4-.75c2.93-5.6,5.91-11.18,8.86-16.76C146.45,155.24,146.58,154.91,146.83,154.35ZM135.77,192,151.67,208l4-4-15.9-16Z"/><path class="cls-2" d="M135.92,205c1.92,0,2.87,1.51,2.15,2.81a5.36,5.36,0,0,1-.92,1.12Q128.06,218,119,227.06a6.43,6.43,0,0,1-1,.87,1.92,1.92,0,0,1-2.62-2.71,6.17,6.17,0,0,1,.72-.82q9.22-9.2,18.46-18.38A9.07,9.07,0,0,1,135.92,205Z"/><path class="cls-2" d="M145.33,213.48a9.92,9.92,0,0,1-1.07,1.74q-6.13,6.17-12.31,12.29c-1.09,1.08-2.25,1.12-3.1.2s-.69-2,.35-3q6.1-6.11,12.23-12.2c.67-.67,1.48-1.18,2.38-.64A8.25,8.25,0,0,1,145.33,213.48Z"/><path class="cls-2" d="M116.8,215.22c-.62-.48-1.34-.78-1.59-1.31a3.14,3.14,0,0,1,0-1.92c.09-.38.53-.69.85-1l11.63-11.59a5.93,5.93,0,0,1,.91-.8,1.78,1.78,0,0,1,2.43.29,1.81,1.81,0,0,1,.24,2.34,3.83,3.83,0,0,1-.61.75q-6,6-12.07,12A13,13,0,0,1,116.8,215.22Z"/><path class="cls-2" d="M185.49,147a11.73,11.73,0,1,1,11.82,11.69A11.7,11.7,0,0,1,185.49,147Zm11.68-7.79a7.77,7.77,0,0,0,0,15.55,7.77,7.77,0,1,0,0-15.55Z"/></g></g></svg>