<svg xmlns="http://www.w3.org/2000/svg" viewBox="0 0 250.25 163.8"><defs><style>.cls-1{fill:#f7f8f8;}.cls-2{fill:#383348;}</style></defs><title>icon_google+_ver1</title><g id="Layer_2" data-name="Layer 2"><g id="Layer_1-2" data-name="Layer 1"><rect class="cls-1" width="163.8" height="163.8" rx="25" ry="25"/><path class="cls-2" d="M107.78,54.46a38.56,38.56,0,0,0-6.84-4.73,40.73,40.73,0,0,0-20.87-4.86A39.67,39.67,0,0,0,44.63,69.58,39.34,39.34,0,0,0,75.52,122.7a42.7,42.7,0,0,0,22.57-2.47c8.55-3.46,14.1-9.77,17.11-18.4.39-1.11.69-2.24,1.07-3.47H82.82c-.88,0-.88,0-.88-.9q0-11.5,0-23c0-.84,0-.84.81-.84h60c0,.25,0,.42,0,.6,0,4.86.09,9.72,0,14.57a64.43,64.43,0,0,1-7.65,29.92c-6.79,12.35-17,20.71-30.21,25.41a67.92,67.92,0,0,1-20.29,3.7,63.47,63.47,0,0,1-27.9-4.92c-19.42-8.37-32.22-22.67-37.91-43.11a58.77,58.77,0,0,1-1.58-23.26A62.54,62.54,0,0,1,38.13,36.77a65.41,65.41,0,0,1,50-16.31,65.43,65.43,0,0,1,35.49,14.68l.78.67Z"/><path class="cls-1" d="M216.34,108.25V89.45H197.54V74.36h18.78V55.55h15.09V74.34h18.84V89.4h-18.8v18.85Z"/></g></g></svg>