<svg xmlns="http://www.w3.org/2000/svg" viewBox="0 0 167.27 167.24"><defs><style>.cls-1{fill:#f7f8f8;}</style></defs><title>icon_facebook_ver1</title><g id="Layer_2" data-name="Layer 2"><g id="Layer_1-2" data-name="Layer 1"><path class="cls-1" d="M83.62,167.24H25.11c-.33-.1-.66-.22-1-.29Q6.25,163.17.9,145.71c-.36-1.17-.6-2.38-.9-3.58q0-58.51,0-117a4.28,4.28,0,0,0,.26-.73A27.17,27.17,0,0,1,4.15,14C9.88,5.17,17.82.06,28.49,0Q83.58-.07,138.68,0a28.81,28.81,0,0,1,28.55,28.56c0,36.69-.07,73.37,0,110.06,0,12.67-9.28,24.42-21.17,27.61-1.32.35-2.65.67-4,1H109.8c0-.44-.11-.88-.11-1.32q0-30.11,0-60.23V104.1h1.72c8.19,0,16.38,0,24.57,0,1.19,0,1.6-.27,1.59-1.54-.06-8.28,0-16.56,0-24.84,0-.48,0-1-.07-1.59H109.82c0-4.39-.21-8.63.07-12.83a6.06,6.06,0,0,1,6.56-5.76c6.54.22,13.09,0,19.63.08,1,0,1.49-.18,1.48-1.38-.05-8.41,0-16.83,0-25.24,0-.39,0-.78-.09-1.32H136c-6.68,0-13.35,0-20,0A28.26,28.26,0,0,0,99,35,35.3,35.3,0,0,0,84.22,59.17c-.74,4.75-.44,9.67-.61,14.51,0,.79,0,1.58,0,2.54H63.25c0,.48-.1.78-.1,1.09,0,8.5,0,17,0,25.51,0,1.14.47,1.31,1.43,1.3,5.79,0,11.57,0,17.36,0h1.71Z"/></g></g></svg>