<svg xmlns="http://www.w3.org/2000/svg" viewBox="0 0 163.82 163.8"><defs><style>.cls-1{fill:#f7f8f8;}</style></defs><title>icon_twitter_ver1</title><g id="Layer_2" data-name="Layer 2"><g id="Layer_1-2" data-name="Layer 1"><path class="cls-1" d="M163.79,81.9c0,18,.07,36,0,54-.07,11.95-5.72,20.51-16.45,25.64a25.6,25.6,0,0,1-11.21,2.29q-30.88,0-61.76,0H27.89C12.08,163.79,0,151.73,0,135.94q0-54,0-108.08A27.37,27.37,0,0,1,27.89,0H136a27.37,27.37,0,0,1,27.82,27.79Q163.8,54.84,163.79,81.9Zm-147.1,42a8.87,8.87,0,0,0,.81.68A73.59,73.59,0,0,0,36.24,133a77.65,77.65,0,0,0,36.5,1.68A70.74,70.74,0,0,0,104,120.66a77,77,0,0,0,23.55-31.09,78.84,78.84,0,0,0,6.51-33,3.37,3.37,0,0,1,1.51-3.12,49.91,49.91,0,0,0,10.31-10.67l1.34-1.85A60.74,60.74,0,0,1,132.6,44.6a28.3,28.3,0,0,0,11.19-14.83c-.62.3-1,.45-1.34.64a53.38,53.38,0,0,1-13.91,5.49,2.82,2.82,0,0,1-3.05-.79,25.63,25.63,0,0,0-24-6.8,26.9,26.9,0,0,0-21.18,26c0,2.26.23,4.52.37,7C58.2,59.72,39.9,50,25.46,32.79a27.94,27.94,0,0,0,7.9,36.29c-4.24,0-8-1.35-11.89-3.29.9,14.13,7.83,23.11,21.22,27.28a27.86,27.86,0,0,1-11.6.44,27.07,27.07,0,0,0,25,19A54,54,0,0,1,16.69,123.87Z"/></g></g></svg>