<svg xmlns="http://www.w3.org/2000/svg" viewBox="0 0 88.21 88.21"><defs><style>.cls-1{fill:#ed7063;}</style></defs><title>plus_ver1</title><g id="Layer_2" data-name="Layer 2"><g id="Layer_1-2" data-name="Layer 1"><path class="cls-1" d="M44.11,68a2,2,0,0,1-2-2V22.21a2,2,0,0,1,4,0V66A2,2,0,0,1,44.11,68Z"/><path class="cls-1" d="M66,46.1H22.21a2,2,0,1,1,0-4H66a2,2,0,0,1,0,4Z"/><path class="cls-1" d="M44.11,88.21A44.1,44.1,0,1,1,88.21,44.1,44.16,44.16,0,0,1,44.11,88.21ZM44.11,4A40.1,40.1,0,1,0,84.21,44.1,40.15,40.15,0,0,0,44.11,4Z"/></g></g></svg>