<svg id="Layer_1" data-name="Layer 1" xmlns="http://www.w3.org/2000/svg" viewBox="0 0 613.75 1816"><defs><style>.cls-1{fill:#ed7063;}</style></defs><title>Untitled-1</title><path class="cls-1" d="M591.1,787V2603h613.75V787Zm488,1257.51a102.82,102.82,0,0,1-13.83,40.53c-8,13.8-17.14,27-25.44,39.9-11.64-11-21.8-20.65-32.06-30.23-3.47-3.24-6.29-3.57-8.22,1.85-4.31,12.13-9.15,24.09-13.17,36.31-.61,1.87,1.38,5.64,3.28,7.11,11.17,8.66,22.48,17.18,34.09,25.24,40.88,28.4,53,70.25,53.14,116.71a121.13,121.13,0,0,1-12.08,52.54c-5.06,10.53-11.1,20.6-17.54,32.43-2.5-4.65-3.6-7.12-5.07-9.37-9.05-13.86-16.1-29.83-27.71-41.06-26.54-25.66-54.59-49.91-83.39-73-42.16-33.87-85.52-66.24-128.33-99.29-8.38-6.47-16.64-13.1-24.87-19.59-9.08,9.71-10.78,24-2,35.55,11.85,15.51,25.22,29.92,38.65,44.14,16.36,17.32,34,33.45,43.6,56.07,7.73,18.21,10.26,36.66,4.3,55.8S833,2350.73,808.64,2352q-27.12,1.46-54.22,3.34c-7.39.52-14.73,1.71-22.1,2.43-2.59.25-5.22,0-8.81,0,1.06-2.25,1.34-3.47,2.07-4.31,10.42-11.89,15-24.43,10.12-40.88-5-16.75-6.41-34.55-10.57-51.6-5.45-22.32-5.68-44.26,3.1-65.57,10.28-25,21.29-49.65,32.4-74.28,2.25-5,2-8.33-1.1-12.83-6.33-9.17-12.76-18.48-17.44-28.53-7.05-15.15-12.55-31.55-8.81-48.25,4.37-19.51,10.68-38.67,17.41-57.54,4.59-12.88,11.35-25,17.69-38.65,5,7.37,8.83,13.17,12.89,18.77,19.62,27,41.34,52.26,67.16,73.47,34.31,28.18,69.23,55.62,104.09,83.12,16.7,13.18,15.24,15.55,28-6.54,9.65-16.75,7.53-23.05-7.68-34.5a101.49,101.49,0,0,1-17.19-16.27c-8.87-10.75-13.61-23.55-10.52-37.42,7-31.26,22.29-58.12,45-80.75,1.78-1.77,2.91-4.2,4.34-6.33h4.48c7,9.05,13.38,18.8,21.32,27,11.9,12.28,25.41,23,37.36,35.23C1071.91,2005.8,1081.52,2022.75,1079.1,2044.51Z" transform="translate(-591.1 -787)"/></svg>